<svg width="33" height="33" viewBox="0 0 33 33" fill="none" xmlns="http://www.w3.org/2000/svg">
<g id="LinkedIN">
<path id="Combined Shape" fill-rule="evenodd" clip-rule="evenodd" d="M16.5 0C7.3873 0 0 7.3873 0 16.5C0 25.6127 7.3873 33 16.5 33C25.6127 33 33 25.6127 33 16.5C33 7.3873 25.6127 0 16.5 0ZM25 24V17.8366C25 14.5361 23.3841 13 21.2289 13C19.4882 13 18.7118 14.0446 18.2764 14.7754V13.2524H15C15.044 14.2605 15 23.9997 15 23.9997H18.2762V17.9973C18.2762 17.6751 18.2984 17.3561 18.3846 17.1264C18.6221 16.4836 19.1598 15.8198 20.065 15.8198C21.2511 15.8198 21.7241 16.8058 21.7241 18.2496V24H25ZM18.2764 14.7754V14.8105H18.2547C18.2578 14.8045 18.2619 14.7983 18.266 14.7921C18.2696 14.7866 18.2733 14.781 18.2764 14.7754ZM11.0122 8C9.79581 8 9 8.86417 9 9.99957C9 11.1109 9.77274 12 10.9655 12H10.9886C12.2289 12 13 11.1109 13 9.99957C12.9764 8.86417 12.2289 8 11.0122 8ZM12 23H9V13H12V23Z" fill="#6B7C93"/>
</g>
</svg>
