<svg width="66" height="66" viewBox="0 0 66 66" fill="none" xmlns="http://www.w3.org/2000/svg">
<g id="LinkedIN">
<path id="Combined Shape" fill-rule="evenodd" clip-rule="evenodd" d="M33 0C14.7746 0 0 14.7746 0 33C0 51.2254 14.7746 66 33 66C51.2254 66 66 51.2254 66 33C66 14.7746 51.2254 0 33 0ZM50 48V35.6731C50 29.0721 46.7683 26 42.4577 26C38.9764 26 37.4235 28.0893 36.5528 29.5507V26.5047H30C30.088 28.521 30 47.9995 30 47.9995H36.5523V35.9945C36.5523 35.3501 36.5968 34.7122 36.7693 34.2527C37.2442 32.9672 38.3197 31.6395 40.13 31.6395C42.5022 31.6395 43.4482 33.6115 43.4482 36.4993V48H50ZM36.5528 29.5507V29.6211H36.5093C36.5156 29.6089 36.5237 29.5966 36.532 29.5841C36.5393 29.5731 36.5466 29.562 36.5528 29.5507ZM22.0244 16C19.5916 16 18 17.7283 18 19.9991C18 22.2217 19.5455 24 21.9311 24H21.9772C24.4577 24 26 22.2217 26 19.9991C25.9528 17.7283 24.4577 16 22.0244 16ZM24 46H18V26H24V46Z" fill="#6B7C93"/>
</g>
</svg>
