<svg width="66" height="66" viewBox="0 0 66 66" fill="none" xmlns="http://www.w3.org/2000/svg">
<g id="Twitter">
<path id="Combined Shape" fill-rule="evenodd" clip-rule="evenodd" d="M33 0C14.7746 0 0 14.7746 0 33C0 51.2254 14.7746 66 33 66C51.2254 66 66 51.2254 66 33C66 14.7746 51.2254 0 33 0ZM47.7595 22.7427C49.2533 22.5603 50.675 22.1518 52 21.5495C51.0124 23.0681 49.7572 24.402 48.3062 25.4637L48.331 26.4445C48.331 36.456 40.9051 48 27.3199 48C23.1492 48 19.2687 46.7445 16 44.5913C16.5781 44.6582 17.1653 44.6951 17.7614 44.6951C21.2212 44.6951 24.4067 43.4881 26.933 41.4572C23.7025 41.3971 20.976 39.207 20.0357 36.1952C20.4879 36.2875 20.9491 36.336 21.4259 36.336C22.1008 36.336 22.7532 36.2414 23.3718 36.0706C19.9952 35.3736 17.4487 32.311 17.4487 28.6415V28.5469C18.4452 29.1147 19.5835 29.4562 20.7938 29.4977C18.8142 28.1408 17.5094 25.8214 17.5094 23.1927C17.5094 21.8033 17.8716 20.5017 18.5082 19.3847C22.1503 23.9681 27.592 26.9845 33.7289 27.3007C33.6029 26.7468 33.5376 26.1675 33.5376 25.5744C33.5376 21.3926 36.8445 18 40.923 18C43.0489 18 44.9655 18.9186 46.313 20.3933C47.9957 20.0517 49.5749 19.4216 51.0056 18.5539C50.4523 20.3194 49.2848 21.8056 47.7595 22.7427Z" fill="#6B7C93"/>
</g>
</svg>
