<svg width="33" height="33" viewBox="0 0 33 33" fill="none" xmlns="http://www.w3.org/2000/svg">
<g id="Twitter">
<path id="Combined Shape" fill-rule="evenodd" clip-rule="evenodd" d="M16.5 0C7.3873 0 0 7.3873 0 16.5C0 25.6127 7.3873 33 16.5 33C25.6127 33 33 25.6127 33 16.5C33 7.3873 25.6127 0 16.5 0ZM23.8798 11.3713C24.6266 11.2801 25.3375 11.0759 26 10.7747C25.5062 11.534 24.8786 12.201 24.1531 12.7318L24.1655 13.2223C24.1655 18.228 20.4525 24 13.66 24C11.5746 24 9.63433 23.3723 8 22.2956C8.28906 22.3291 8.58265 22.3476 8.88071 22.3476C10.6106 22.3476 12.2033 21.7441 13.4665 20.7286C11.8513 20.6986 10.488 19.6035 10.0179 18.0976C10.2439 18.1438 10.4745 18.168 10.713 18.168C11.0504 18.168 11.3766 18.1207 11.6859 18.0353C9.99762 17.6868 8.72435 16.1555 8.72435 14.3208V14.2735C9.22262 14.5573 9.79177 14.7281 10.3969 14.7489C9.40709 14.0704 8.75471 12.9107 8.75471 11.5963C8.75471 10.9016 8.9358 10.2509 9.25412 9.69234C11.0752 11.9841 13.796 13.4923 16.8644 13.6504C16.8014 13.3734 16.7688 13.0838 16.7688 12.7872C16.7688 10.6963 18.4223 9 20.4615 9C21.5244 9 22.4828 9.45928 23.1565 10.1966C23.9978 10.0259 24.7875 9.71081 25.5028 9.27694C25.2261 10.1597 24.6424 10.9028 23.8798 11.3713Z" fill="#6B7C93"/>
</g>
</svg>
